<?xml version="1.0" encoding="UTF-8" standalone="no"?>
<!-- Created with Inkscape (http://www.inkscape.org/) -->

<svg
   width="84.319389mm"
   height="17.52079mm"
   viewBox="0 0 84.319389 17.52079"
   version="1.1"
   id="svg1"
   xml:space="preserve"
   xmlns="http://www.w3.org/2000/svg"
   xmlns:svg="http://www.w3.org/2000/svg"><defs
     id="defs1" /><g
     id="layer1"
     transform="translate(-71.251088,-107.74437)"><path
       style="fill:#0c62fb;stroke:none"
       d="m 79.398018,107.76512 c -1.375733,0.10473 -2.721278,0.46383 -3.915719,1.16977 -6.354063,3.75542 -5.392034,13.77027 1.813596,15.93142 0.992228,0.2976 2.054606,0.45502 3.091358,0.38049 1.372066,-0.0986 2.720617,-0.45111 3.915719,-1.14868 6.407042,-3.73971 5.44304,-13.83327 -1.813596,-15.96784 -0.994534,-0.29255 -2.054252,-0.44411 -3.091358,-0.36516 m 0.247409,1.66598 c 1.207157,-0.27959 1.495659,1.23187 1.798524,2.0653 0.939121,2.58431 1.895516,5.16238 2.828282,7.74901 0.270777,0.75088 0.604827,1.49849 0.820943,2.26698 0.08393,0.29843 0.05357,0.67139 -0.302003,0.76404 -0.687929,0.17924 -2.032928,-0.65177 -2.755197,-0.80329 -1.698913,-0.35641 -3.49225,-0.26925 -5.152262,0.23669 -0.465922,0.142 -1.791479,0.95461 -2.131739,0.36238 -0.353168,-0.61468 0.593891,-2.24982 0.814099,-2.86802 0.878556,-2.46643 1.801055,-4.91767 2.696545,-7.37804 0.264828,-0.72762 0.499974,-2.19058 1.382808,-2.39505 m 29.718143,0.33414 v 4.69887 c -0.54011,-0.52494 -1.11809,-0.88446 -1.85481,-1.06249 -0.6193,-0.14965 -1.26835,-0.1633 -1.89604,-0.0617 -3.21267,0.52004 -4.4055,4.79132 -2.28489,7.13795 0.97003,1.07343 2.55293,1.39729 3.93362,1.1151 0.92397,-0.18884 1.55716,-0.67954 2.18456,-1.35833 l 0.0824,1.27776 h 1.44264 v -11.74716 h -1.60751 m 4.24547,9.35651 h -1.60751 c 0.27164,3.05844 5.84791,3.6264 6.69123,0.65949 0.61297,-2.15651 -1.40019,-2.82424 -3.06404,-3.10462 -0.60497,-0.10195 -1.58537,-0.135 -1.7978,-0.85298 -0.20229,-0.68367 0.51047,-1.18788 1.09709,-1.28452 0.93318,-0.15374 1.8802,0.18832 2.14335,1.16153 h 1.48385 c -0.18948,-2.96434 -5.50794,-3.49863 -6.30307,-0.65949 -0.5961,2.12846 1.52241,2.72185 3.12927,3.0044 0.66443,0.11683 1.609,0.21868 1.76043,1.03514 0.13361,0.72041 -0.55863,1.18764 -1.18337,1.28759 -0.99512,0.15919 -2.07899,-0.18549 -2.34943,-1.24654 m 14.22024,-0.0412 c -0.44822,0 -1.04064,-0.10153 -1.46877,0.0413 -0.44177,0.14741 -0.72414,0.69767 -1.16919,0.90628 -1.30511,0.61174 -3.1752,0.21536 -3.71188,-1.23613 -0.14889,-0.40267 -0.16224,-0.81265 -0.16262,-1.23654 h 6.38881 c 0.0907,-0.80576 0.0586,-1.55961 -0.29199,-2.30822 -1.62013,-3.45904 -7.0037,-2.19652 -7.63598,1.27776 -0.28281,1.55402 0.12542,3.31432 1.41567,4.31327 2.12374,1.64425 5.80835,0.92597 6.63595,-1.75774 m 22.71117,-5.82849 c -3.25907,0.3707 -5.00714,4.28592 -2.88634,6.89988 0.99909,1.23142 2.63304,1.67104 4.1641,1.49463 3.09156,-0.3562 4.79541,-3.94421 3.05533,-6.56418 -0.92957,-1.39962 -2.70353,-2.01568 -4.33309,-1.83033 m -56.22148,2.902 h 1.525069 c 0.112321,-1.447 2.013403,-1.97033 3.130495,-1.23235 0.620943,0.41021 0.7409,1.07691 0.744007,1.76819 -1.074504,0.0464 -2.195106,0.15737 -3.25623,0.33337 -1.756919,0.2914 -3.359064,2.16918 -1.912586,3.82612 1.37829,1.57883 4.217335,0.81752 5.210034,-0.77961 0.05129,0.35066 -0.05291,1.19075 0.234073,1.43505 0.266628,0.22698 0.999828,0.09 1.332218,0.09 v -4.24546 c 0,-1.11103 -0.0118,-2.25033 -0.81238,-3.1218 -1.804268,-1.96417 -6.121872,-0.92909 -6.1947,1.92647 m 36.43679,-1.48385 h -0.0412 c -0.0984,-1.28147 -0.39754,-1.27776 -1.60751,-1.27776 v 8.07875 h 1.60751 c 0,-2.44716 -0.80764,-6.79395 2.80283,-6.5949 V 113.31 c -1.19263,-0.0656 -2.18894,0.21523 -2.76162,1.3602 m 3.21502,-1.27776 c 0.94466,2.05283 1.99179,4.05986 2.96325,6.10028 0.22833,0.47959 0.6413,1.88085 1.20892,1.99768 1.12237,0.23103 1.35378,-0.88977 1.73834,-1.70915 0.98967,-2.10869 2.25125,-4.19469 3.03381,-6.38881 -0.43859,0 -1.27187,-0.15964 -1.64861,0.09 -0.41857,0.27737 -0.64894,1.19566 -0.85056,1.64114 -0.63381,1.40039 -1.32657,2.78263 -1.91116,4.20425 -1.01011,-1.88047 -1.95584,-3.94226 -2.7204,-5.93541 h -1.81359 m 9.8099,0 v 8.07875 h 1.60751 v -8.07875 h -1.60751 m -17.72378,3.05014 h -4.69886 c 0.49008,-2.37429 4.46125,-2.60795 4.69886,0 m -19.8671,-1.75 c 3.68185,-0.44513 4.40434,5.16279 0.74192,5.59328 -3.53654,0.41571 -4.18246,-5.17731 -0.74192,-5.59328 m 44.59798,-4e-4 c 0.92305,-0.10815 1.89728,0.14079 2.49884,0.88918 1.27172,1.58213 0.49275,4.36282 -1.63326,4.62784 -0.9673,0.12058 -1.98327,-0.13699 -2.60603,-0.92665 -1.28435,-1.62856 -0.38543,-4.34129 1.74045,-4.59037 m -71.018779,1.16173 c -2.164733,0.20597 -1.822161,3.50199 0.329745,3.29518 2.111777,-0.20295 1.768614,-3.49484 -0.329745,-3.29518 m 19.94956,1.82521 c -0.01848,1.60097 -1.962645,3.49233 -3.575067,2.34819 -1.600031,-1.13536 0.851135,-2.03358 1.720252,-2.13923 0.617414,-0.0751 1.23521,-0.15424 1.854815,-0.20896 z"
       id="path3" /></g></svg>
